#!OML:ASF E:\Style4\Style4.ASF
:FULLY-SPECIFIED
:DEGREES
4037
root 0.510503 17.0247 0.112489 -13.4483 -19.5065 6.78183
lowerback 6.34537 0.656673 -3.6513
upperback 7.79831 0.696027 0.417014
thorax 4.49637 0.124576 2.45853
lowerneck 8.41588 5.4015 -2.50303
upperneck 6.48483 7.06157 -4.05295
head 0.693034 3.45079 -0.96193
rclavicle 2.34566e-014 -1.51076e-014
rhumerus 2.19398 14.1876 -84.4917
rradius 128.55
rwrist 30.4753
rhand 30.1172 -7.06953
rfingers 7.12502
rthumb 53.8123 -26.0337
lclavicle 2.34566e-014 -1.51076e-014
lhumerus 4.71013 -18.4556 89.2734
lradius 128.793
lwrist -16.7581
lhand 24.5417 40.5236
lfingers 7.12502
lthumb 48.7401 62.3835
rfemur -9.05796 7.29787 11.0048
rtibia 46.8991
rfoot -25.1233 -9.36331
rtoes -21.5429
lfemur 2.35835 13.5164 -24.114
ltibia 38.0742
lfoot -30.5143 14.9709
ltoes -10.7964
4038
root 0.509739 17.0401 0.111268 -13.3436 -19.1851 6.75516
lowerback 6.22602 0.644196 -3.72998
upperback 7.72498 0.682262 0.43996
thorax 4.48587 0.115149 2.5276
lowerneck 8.55374 5.36307 -2.67767
upperneck 6.46696 6.98313 -3.86666
head 0.651812 3.41018 -0.879324
rclavicle 3.97569e-016 -4.77083e-015
rhumerus 2.19583 14.3027 -84.5114
rradius 128.541
rwrist 30.5043
rhand 30.2247 -6.89272
rfingers 7.12502
rthumb 53.9089 -25.7922
lclavicle 3.97569e-016 -4.77083e-015
lhumerus 4.50662 -18.4003 89.2404
lradius 128.861
lwrist -16.7446
lhand 24.6061 40.5547
lfingers 7.12502
lthumb 48.7993 62.3858
rfemur -8.90348 7.05182 10.9539
rtibia 46.6225
rfoot -24.991 -8.9443
rtoes -19.7443
lfemur 2.34188 13.2858 -24.1764
ltibia 37.881
lfoot -30.2096 15.1258
ltoes -11.7359
4039
root 0.507032 17.0522 0.110728 -13.2779 -18.7973 6.80416
lowerback 6.13493 0.680074 -3.84824
upperback 7.66656 0.732773 0.411862
thorax 4.47121 0.137419 2.56408
lowerneck 8.5624 5.24192 -2.79124
upperneck 6.59615 6.81104 -3.6352
head 0.67656 3.3192 -0.784947
rclavicle -2.8128e-014 5.56597e-015
rhumerus 2.22632 14.3046 -84.5102
rradius 128.6
rwrist 30.6569
rhand 30.5829 -6.85813
rfingers 7.12502
rthumb 54.2303 -25.5393
lclavicle -2.8128e-014 5.56597e-015
lhumerus 4.41971 -18.4392 89.035
lradius 128.918
lwrist -16.4581
lhand 24.3657 40.5971
lfingers 7.12502
lthumb 48.5782 62.5356
rfemur -8.73678 6.7727 10.8179
rtibia 46.3687
rfoot -24.9941 -8.6779
rtoes -18.1212
lfemur 2.34934 13.0628 -24.3033
ltibia 37.6844
lfoot -29.9625 15.1023
ltoes -11.9405
4040
root 0.501008 17.0651 0.107873 -13.1549 -18.4182 6.74135
lowerback 6.04643 0.698125 -3.9634
upperback 7.59764 0.757203 0.456275
thorax 4.44516 0.14507 2.67484
lowerneck 8.59887 5.14424 -2.92757
upperneck 6.67452 6.66638 -3.46042
head 0.683281 3.24293 -0.706707
rclavicle -5.76476e-015 8.74653e-015
rhumerus 2.27862 14.5182 -84.4512
rradius 128.656
rwrist 30.6352
rhand 30.5679 -6.96617
rfingers 7.12502
rthumb 54.2168 -25.6565
lclavicle -5.76476e-015 8.74653e-015
lhumerus 4.31828 -18.2983 88.8944
lradius 128.945
lwrist -16.3488
lhand 24.2778 40.5605
lfingers 7.12502
lthumb 48.4973 62.5379
rfemur -8.61288 6.5426 10.844
rtibia 46.1184
rfoot -25.0612 -8.74576
rtoes -17.4271
lfemur 2.31351 12.872 -24.2884
ltibia 37.5155
lfoot -29.6913 14.9907
ltoes -12.0315
4041
root 0.496428 17.0772 0.100716 -12.9654 -18.0807 6.58208
lowerback 5.96037 0.810898 -3.8822
upperback 7.55922 0.914544 0.478455
thorax 4.44054 0.228986 2.64961
lowerneck 8.4275 4.96804 -2.94696
upperneck 6.81022 6.43834 -3.21124
head 0.741351 3.12501 -0.61652
rclavicle -4.79071e-014 -7.95139e-015
rhumerus 2.32023 14.4766 -84.4244
rradius 128.699
rwrist 30.6853
rhand 30.4567 -7.00801
rfingers 7.12502
rthumb 54.1171 -25.7666
lclavicle -4.79071e-014 -7.95139e-015
lhumerus 4.41545 -18.2882 88.733
lradius 128.915
lwrist -16.2759
lhand 24.2587 40.5072
lfingers 7.12502
lthumb 48.4797 62.4931
rfemur -8.56877 6.33549 10.984
rtibia 45.8862
rfoot -24.9587 -8.9297
rtoes -17.5294
lfemur 2.19376 12.6997 -24.1628
ltibia 37.3905
lfoot -29.4487 14.8657
ltoes -12.3573
4042
root 0.491928 17.0888 0.0958116 -12.7776 -17.6859 6.49789
lowerback 5.88085 1.00624 -3.69151
upperback 7.56866 1.18949 0.365476
thorax 4.4782 0.379695 2.42049
lowerneck 7.95862 4.67161 -2.77384
upperneck 7.03851 6.08192 -2.92553
head 0.879422 2.94395 -0.535728
rclavicle -9.14409e-015 4.77083e-015
rhumerus 2.39575 14.0674 -84.4535
rradius 128.736
rwrist 30.8213
rhand 30.268 -6.91852
rfingers 7.12502
rthumb 53.9478 -25.7918
lclavicle -9.14409e-015 4.77083e-015
lhumerus 4.78487 -18.5313 88.3612
lradius 128.838
lwrist -16.117
lhand 24.1938 40.5538
lfingers 7.12502
lthumb 48.4199 62.5683
rfemur -8.51023 6.07049 11.0125
rtibia 45.6802
rfoot -24.895 -9.04622
rtoes -17.8479
lfemur 2.03934 12.4828 -24.1359
ltibia 37.29
lfoot -29.3066 14.7162
ltoes -12.451
4043
root 0.485147 17.1002 0.0883595 -12.5944 -17.2273 6.39827
lowerback 5.84379 1.16565 -3.52499
upperback 7.54998 1.41337 0.258165
thorax 4.46824 0.50484 2.21143
lowerneck 7.61607 4.38808 -2.68562
upperneck 7.19637 5.72259 -2.60039
head 0.972995 2.7633 -0.435281
rclavicle 1.78906e-015 2.14687e-014
rhumerus 2.51335 13.7854 -84.4914
rradius 128.716
rwrist 30.8208
rhand 29.9203 -6.85974
rfingers 7.12502
rthumb 53.6353 -25.9414
lclavicle 1.78906e-015 2.14687e-014
lhumerus 5.10536 -18.7042 87.9991
lradius 128.73
lwrist -16.1065
lhand 23.9514 40.5671
lfingers 7.12502
lthumb 48.1967 62.6876
rfemur -8.43992 5.80783 11.068
rtibia 45.4988
rfoot -24.9218 -9.11566
rtoes -17.5377
lfemur 1.86437 12.1985 -24.0873
ltibia 37.2013
lfoot -29.1555 14.5708
ltoes -12.4757
4044
root 0.477135 17.108 0.0806376 -12.4361 -16.7349 6.32077
lowerback 5.76781 1.27311 -3.53425
upperback 7.51395 1.56228 0.231239
thorax 4.46354 0.581336 2.18665
lowerneck 7.48899 4.1594 -2.66951
upperneck 7.3089 5.42031 -2.34359
head 1.01975 2.61199 -0.351443
rclavicle 1.77912e-014 -3.97569e-015
rhumerus 2.6656 13.7344 -84.4677
rradius 128.647
rwrist 30.7419
rhand 29.6659 -6.70792
rfingers 7.12502
rthumb 53.4063 -25.9396
lclavicle 1.77912e-014 -3.97569e-015
lhumerus 5.27093 -18.6171 87.7487
lradius 128.663
lwrist -16.1675
lhand 23.6508 40.3801
lfingers 7.12502
lthumb 47.9196 62.6303
rfemur -8.37627 5.55152 11.113
rtibia 45.3494
rfoot -24.8973 -9.33125
rtoes -17.2965
lfemur 1.71829 11.9024 -24.0475
ltibia 37.1163
lfoot -29.0702 14.2668
ltoes -12.1402
